<?xml version="1.0" encoding="iso-8859-1"?>
<!-- Generator: Adobe Illustrator 19.0.0, SVG Export Plug-In . SVG Version: 6.00 Build 0)  -->
<svg version="1.1" id="Capa_1" xmlns="http://www.w3.org/2000/svg" xmlns:xlink="http://www.w3.org/1999/xlink" x="0px" y="0px"
	 viewBox="0 0 511.998 511.998" style="enable-background:new 0 0 511.998 511.998;" xml:space="preserve">
<g>
	<polygon style="fill:#FFDAAE;" points="137.919,76.001 216.641,76.001 295.359,76.001 374.08,76.001 452.797,76.001 
		452.797,35.998 59.198,35.998 59.198,76.001 	"/>
	<path style="fill:#FF5A5A;" d="M108.4,172.953l29.519-96.952H59.198L10,172.953v24.601c0,27.173,22.027,49.198,49.198,49.198
		c27.175,0,49.202-22.025,49.202-49.198V172.953z"/>
	<path style="fill:#FF9D21;" d="M137.919,76.001L108.4,172.953v24.601c0,27.173,22.025,49.198,49.199,49.198
		c27.172,0,49.199-22.025,49.199-49.198v-24.601l9.842-96.952H137.919z"/>
	<path style="fill:#FF5A5A;" d="M216.641,76.001l-9.842,96.952v24.601c0,27.173,22.027,49.198,49.201,49.198
		c27.17,0,49.197-22.025,49.197-49.198v-24.601l-9.838-96.952H216.641z"/>
	<path style="fill:#FF9D21;" d="M295.359,76.001l9.838,96.952v24.601c0,27.173,22.028,49.198,49.201,49.198
		c27.173,0,49.2-22.025,49.2-49.198v-24.601L374.08,76.001H295.359z"/>
	<path style="fill:#FF5A5A;" d="M374.08,76.001l29.519,96.952v24.601c0,27.173,22.026,49.198,49.2,49.198
		s49.199-22.025,49.199-49.198v-24.601l-49.201-96.952H374.08z"/>
	<path style="fill:#FFDAAE;" d="M354.398,246.752c-27.173,0-49.201-22.025-49.201-49.198c0,27.173-22.027,49.198-49.197,49.198
		c-27.174,0-49.201-22.025-49.201-49.198c0,27.173-22.027,49.198-49.199,49.198c-27.174,0-49.199-22.025-49.199-49.198
		c0,27.173-22.027,49.198-49.202,49.198V476h273.6v-40.002h-233.6v-36.609V296h103.389h63.127h67.083h80.001v180h40V246.752
		c-27.174,0-49.2-22.025-49.2-49.198C403.599,224.727,381.571,246.752,354.398,246.752z"/>
	<polygon style="fill:#96C8EB;" points="332.798,296 265.715,296 202.588,296 99.199,296 99.199,399.389 99.199,435.998 
		332.798,435.998 332.798,385.998 	"/>
	<polygon style="fill:#BF9A94;" points="332.798,296 332.798,385.998 332.798,435.998 332.798,476 412.799,476 412.799,296 	"/>
</g>
<g>
	<path style="fill:#000001;" d="M510.915,168.428l-48.118-94.824V35.998c0-5.522-4.476-10-10-10H59.198c-5.522,0-10,4.478-10,10
		v37.611L1.082,168.428C0.371,169.83,0,171.381,0,172.953v24.601c0,29.232,21.304,53.568,49.198,58.337v210.105H38.965
		c-5.523,0-10,4.478-10,10s4.477,10,10,10h20.156c0.025,0,0.051,0.004,0.077,0.004h273.6h80.001h40h20.233c5.522,0,10-4.478,10-10
		s-4.478-10-10-10h-10.233V255.891c27.895-4.769,49.199-29.104,49.199-58.337v-24.601
		C511.998,171.381,511.627,169.83,510.915,168.428z M69.198,45.998h373.599v20.003H374.08h-78.721H216.64h-78.722h-68.72V45.998z
		 M393.599,197.554c0,21.614-17.585,39.198-39.2,39.198s-39.201-17.584-39.201-39.198v-24.601c0-0.337-0.017-0.674-0.051-1.01
		l-8.721-85.942h60.246l26.927,88.44V197.554z M295.197,197.554c0,21.614-17.584,39.198-39.197,39.198
		c-21.615,0-39.201-17.584-39.201-39.198v-24.095l8.878-87.458h60.646l8.875,87.458v24.095H295.197z M196.799,172.953v24.601
		c0,21.614-17.584,39.198-39.199,39.198s-39.199-17.584-39.199-39.198v-23.112l26.928-88.44h60.246l-8.724,85.942
		C196.816,172.279,196.799,172.616,196.799,172.953z M20,197.554v-22.209l45.338-89.344h59.083L98.834,170.04
		c-0.287,0.944-0.434,1.926-0.434,2.913v24.601c0,21.614-17.586,39.198-39.202,39.198C37.584,236.752,20,219.168,20,197.554z
		 M69.198,255.891c16.294-2.785,30.339-12.238,39.202-25.455c10.632,15.855,28.715,26.316,49.199,26.316
		s38.566-10.461,49.199-26.316c10.633,15.855,28.717,26.316,49.201,26.316c20.482,0,38.566-10.46,49.197-26.316
		c10.633,15.856,28.717,26.316,49.201,26.316s38.568-10.461,49.2-26.316c8.862,13.217,22.907,22.67,39.2,25.455V466h-20V296
		c0-5.522-4.477-10-10-10h-80.001H99.199c-5.524,0-10,4.478-10,10v139.998c0,5.523,4.476,10,10,10h223.599V466h-253.6V255.891z
		 M109.199,403.531L206.73,306h34.84l-19.015,19.012c-3.905,3.904-3.905,10.236-0.001,14.142c1.953,1.953,4.512,2.93,7.072,2.93
		c2.559,0,5.117-0.977,7.07-2.929L269.855,306h52.942v119.998H109.199V403.531z M109.199,375.246V306h69.246L109.199,375.246z
		 M342.798,466v-30.002v-40h10.001c5.523,0,10-4.477,10-10c0-5.522-4.477-10-10-10h-10.001V306h60.001v160H342.798z
		 M491.998,197.554c0,21.614-17.585,39.198-39.199,39.198c-21.615,0-39.2-17.584-39.2-39.198v-24.601
		c0-0.987-0.146-1.969-0.434-2.913l-25.587-84.039h59.082l45.338,89.344V197.554z"/>
	<path style="fill:#000001;" d="M202.26,345.309l-0.167,0.166c-3.917,3.893-3.934,10.226-0.042,14.142
		c1.955,1.966,4.523,2.949,7.092,2.949c2.55,0,5.1-0.969,7.051-2.908l0.167-0.166c3.917-3.893,3.935-10.225,0.042-14.142
		C212.508,341.433,206.176,341.414,202.26,345.309z"/>
	<path style="fill:#000001;" d="M10.236,465.996H10c-5.523,0-10,4.478-10,10s4.477,10,10,10h0.236c5.522,0,10-4.478,10-10
		S15.759,465.996,10.236,465.996z"/>
	<path style="fill:#000001;" d="M501.998,466h-0.236c-5.523,0-10,4.478-10,10s4.477,10,10,10h0.236c5.523,0,10-4.478,10-10
		S507.521,466,501.998,466z"/>
</g>
<g>
</g>
<g>
</g>
<g>
</g>
<g>
</g>
<g>
</g>
<g>
</g>
<g>
</g>
<g>
</g>
<g>
</g>
<g>
</g>
<g>
</g>
<g>
</g>
<g>
</g>
<g>
</g>
<g>
</g>
</svg>
